<svg xmlns="http://www.w3.org/2000/svg" version="1.1" xmlns:xlink="http://www.w3.org/1999/xlink" width="1500" height="1500" viewBox="0 0 1500 1500"><rect width="1500" height="1500" x="0" y="0" id="background" stroke="transparent" fill="#000000"></rect><svg xml:space="preserve" width="1000" height="1000" data-version="2" data-id="lg_O4mQnAOh4Dc4qMouVj" viewBox="0 0 571 219" x="250" y="250"><rect width="100%" height="100%" fill="transparent"></rect><rect width="609.126" height="216.732" x="-304.563" y="-108.366" fill="#e1e1e1" paint-order="stroke" rx="0" ry="0" transform="translate(298.879 122.251)scale(.8754)" vector-effect="non-scaling-stroke"></rect><rect width="609.126" height="216.732" x="-304.563" y="-108.366" fill="#000000" stroke="#ffffff" stroke-width="8" paint-order="stroke" rx="0" ry="0" transform="translate(275.62 100.252)scale(.8754)" vector-effect="non-scaling-stroke"></rect><path fill="#e1e1e1" d="M56.441 128.56q-5.52 0-9.24-2.05-3.73-2.04-5.64-5.42-1.91-3.38-1.91-7.43 0-3.77 1.34-6.63 1.33-2.85 3.95-4.85 2.63-2 6.44-3.24 3.32-.97 7.5-1.7 4.19-.74 8.81-1.38l9.18-1.29-3.5 1.93q.09-5.84-2.46-8.67T62.151 85q-3.91 0-7.18 1.82-3.26 1.81-4.55 6l-8.97-2.76q1.84-6.39 7.01-10.17 5.18-3.77 13.78-3.77 6.67 0 11.62 2.28 4.94 2.28 7.24 7.2 1.2 2.44 1.47 5.15.28 2.71.28 5.84v30.59h-8.51v-11.36l1.65 1.47q-3.08 5.71-7.84 8.49-4.76 2.78-11.71 2.78m1.71-7.86q4.09 0 7.03-1.45 2.95-1.45 4.74-3.71 1.8-2.25 2.35-4.69.78-2.21.9-4.97.11-2.76.11-4.41l3.13 1.15q-4.56.69-8.28 1.24-3.73.55-6.74 1.08-3.01.53-5.36 1.27-1.98.69-3.52 1.65-1.54.97-2.44 2.35-.89 1.38-.89 3.36 0 1.93.96 3.56.97 1.63 2.95 2.6 1.97.97 5.06.97m56.39 7.86q-6.94 0-11.98-3.45t-7.77-9.41q-2.74-5.95-2.74-13.4 0-7.5 2.76-13.41t7.84-9.34q5.08-3.43 12.08-3.43 7.03 0 11.84 3.43t7.27 9.36q2.46 5.93 2.46 13.39 0 7.45-2.48 13.38-2.49 5.94-7.32 9.41-4.83 3.47-11.96 3.47m1.34-8.69q4.73 0 7.72-2.26 2.99-2.25 4.37-6.21 1.38-3.95 1.38-9.1 0-5.16-1.4-9.11-1.4-3.96-4.32-6.17-2.92-2.2-7.43-2.2-4.79 0-7.87 2.34-3.08 2.35-4.57 6.3-1.5 3.96-1.5 8.84 0 4.92 1.5 8.9 1.49 3.98 4.5 6.32 3.02 2.35 7.62 2.35m22.03 7.31h-8.56V91.44h-1.1v-30.5h9.66zm26.91 1.38q-5.52 0-9.25-2.05-3.72-2.04-5.63-5.42-1.91-3.38-1.91-7.43 0-3.77 1.33-6.63 1.34-2.85 3.96-4.85 2.62-2 6.44-3.24 3.31-.97 7.5-1.7 4.18-.74 8.81-1.38l9.17-1.29-3.49 1.93q.09-5.84-2.46-8.67-2.56-2.83-8.77-2.83-3.91 0-7.17 1.82-3.27 1.81-4.56 6l-8.97-2.76q1.84-6.39 7.02-10.17 5.17-3.77 13.78-3.77 6.67 0 11.61 2.28 4.95 2.28 7.25 7.2 1.19 2.44 1.47 5.15.27 2.71.27 5.84v30.59h-8.51v-11.36l1.66 1.47q-3.08 5.71-7.84 8.49-4.76 2.78-11.71 2.78m1.7-7.86q4.1 0 7.04-1.45 2.94-1.45 4.74-3.71 1.79-2.25 2.34-4.69.79-2.21.9-4.97.12-2.76.12-4.41l3.12 1.15q-4.55.69-8.28 1.24-3.72.55-6.73 1.08-3.02.53-5.36 1.27-1.98.69-3.52 1.65-1.54.97-2.44 2.35-.9 1.38-.9 3.36 0 1.93.97 3.56.96 1.63 2.94 2.6 1.98.97 5.06.97m105.8 6.48h-9.61l.04-30.96q0-5.38-2.76-8.39-2.76-3.01-7.26-3.01-2.76 0-5.04 1.26-2.28 1.27-3.68 3.77-1.4 2.51-1.4 6.28l-4.65-2.34q-.09-5.25 2.23-9.2 2.32-3.96 6.33-6.15 4-2.18 8.97-2.18 8.05 0 12.46 4.83 4.42 4.83 4.42 12.83zm-59.52 0h-9.66V77.5h8.55v14.35h1.11zm29.76 0h-9.61l.04-30.77q0-5.43-2.73-8.51-2.74-3.08-7.34-3.08-4.56 0-7.34 3.12-2.78 3.13-2.78 8.19l-4.6-2.94q0-4.88 2.34-8.7 2.35-3.81 6.35-6.02 4-2.21 9.06-2.21 5.29 0 9.02 2.23 3.73 2.23 5.68 6.23 1.96 4.01 1.96 9.3zm63.8 1.38q-7.4 0-12.99-3.24t-8.7-9.06q-3.1-5.82-3.1-13.5 0-8.15 3.06-14.13t8.53-9.24q5.47-3.27 12.74-3.27 7.59 0 12.93 3.52 5.33 3.52 7.98 10.01 2.64 6.48 2.09 15.41h-9.61v-3.5q-.09-8.65-3.29-12.79-3.2-4.14-9.73-4.14-7.22 0-10.86 4.56-3.63 4.55-3.63 13.15 0 8.19 3.63 12.67 3.64 4.49 10.49 4.49 4.51 0 7.8-2.05 3.29-2.04 5.13-5.86l9.43 2.99q-2.9 6.67-8.79 10.32-5.89 3.66-13.11 3.66m17.76-23.5h-35.47v-7.5h35.47zm34.08 23.46q-9.06 0-14.76-4.01-5.71-4-6.99-11.27l9.84-1.51q.92 3.86 4.26 6.09 3.33 2.23 8.3 2.23 4.51 0 7.06-1.84t2.55-5.06q0-1.88-.89-3.06-.9-1.17-3.75-2.23-2.86-1.06-8.7-2.62-6.39-1.66-10.14-3.57-3.75-1.9-5.34-4.46-1.58-2.55-1.58-6.18 0-4.51 2.39-7.87 2.39-3.36 6.74-5.2 4.34-1.84 10.19-1.84 5.7 0 10.16 1.8 4.46 1.79 7.22 5.08t3.32 7.7l-9.85 1.8q-.5-3.59-3.36-5.66-2.85-2.07-7.4-2.25-4.37-.19-7.09 1.44-2.71 1.64-2.71 4.49 0 1.66 1.04 2.81 1.03 1.15 4.02 2.2 2.99 1.06 8.83 2.53 6.26 1.61 9.94 3.57 3.68 1.95 5.27 4.64 1.58 2.7 1.58 6.51 0 7.36-5.36 11.55t-14.79 4.19m42.14-1.34h-10.17v-10.16h10.17zm35.79 1.38q-7.64 0-12.97-3.4-5.34-3.41-8.17-9.34t-2.87-13.48q.04-7.68 2.94-13.59t8.28-9.27q5.38-3.36 12.93-3.36 8.14 0 13.91 4.05t7.61 11.09l-9.56 2.76q-1.43-4.19-4.67-6.51-3.25-2.33-7.43-2.33-4.74 0-7.78 2.23-3.03 2.24-4.5 6.1-1.48 3.86-1.52 8.83.04 7.68 3.52 12.42 3.47 4.74 10.28 4.74 4.64 0 7.52-2.14 2.87-2.14 4.39-6.14l9.75 2.3q-2.43 7.27-8.05 11.15-5.61 3.89-13.61 3.89m52.3 0q-7.64 0-12.97-3.4-5.34-3.41-8.17-9.34t-2.87-13.48q.04-7.68 2.94-13.59t8.28-9.27q5.38-3.36 12.93-3.36 8.14 0 13.91 4.05 5.78 4.05 7.62 11.09l-9.57 2.76q-1.43-4.19-4.67-6.51-3.24-2.33-7.43-2.33-4.74 0-7.77 2.23-3.04 2.24-4.51 6.1-1.47 3.86-1.52 8.83.05 7.68 3.52 12.42t10.28 4.74q4.65 0 7.52-2.14 2.88-2.14 4.39-6.14l9.76 2.3q-2.44 7.27-8.05 11.15-5.62 3.89-13.62 3.89"></path></svg></svg>